<svg xmlns="http://www.w3.org/2000/svg" xmlns:xlink="http://www.w3.org/1999/xlink" width="1080" zoomAndPan="magnify" viewBox="0 0 810 809.999993" height="1080" preserveAspectRatio="xMidYMid meet" version="1.0"><defs><clipPath id="1780eb900d"><path d="M 1 198.464844 L 388 198.464844 L 388 635.714844 L 1 635.714844 Z M 1 198.464844 " clip-rule="nonzero"/></clipPath><clipPath id="5d92b79ca1"><path d="M 416 192.507812 L 810 192.507812 L 810 641.757812 L 416 641.757812 Z M 416 192.507812 " clip-rule="nonzero"/></clipPath></defs><path fill="#c0c0c0" d="M 49.835938 320.640625 C 50.253906 319.449219 50.753906 318.214844 50.832031 317.917969 C 52.019531 313.324219 52.515625 308.5 52.378906 303.753906 C 52.007812 290.773438 47.585938 279.335938 40.644531 268.390625 C 38.550781 265.09375 36.324219 261.875 34.15625 258.625 C 33.898438 258.234375 32.644531 255.785156 32.035156 255.847656 C 31.585938 255.898438 31.933594 259.71875 31.945312 260.027344 C 32.160156 264.84375 32.242188 269.691406 32.097656 274.507812 C 31.707031 287.902344 31.738281 301.679688 36.789062 314.390625 C 38.507812 318.710938 41.402344 324.425781 46.222656 326.285156 C 53.074219 349.703125 67.429688 369.53125 78.6875 391.050781 C 77.296875 389.222656 75.855469 387.4375 74.363281 385.695312 C 61.15625 370.300781 44.601562 359.824219 25.199219 353.929688 C 21.003906 352.652344 16.789062 351.488281 12.53125 350.4375 C 12.042969 350.316406 8.960938 349.207031 8.632812 349.746094 C 8.148438 350.539062 11.101562 354.144531 11.515625 354.765625 C 15.054688 360.082031 18.777344 365.277344 22.332031 370.589844 C 33.730469 387.625 50.894531 399.15625 69.746094 406.78125 C 74.46875 408.691406 82.359375 412.546875 88.054688 411.984375 C 95.480469 432.484375 98.097656 453.800781 97.171875 475.398438 C 96.558594 472.546875 95.882812 469.707031 95.15625 466.886719 C 92.09375 455.003906 87.527344 439.476562 78.054688 430.335938 C 78.566406 429.625 78.957031 428.816406 79.199219 427.925781 C 80.261719 423.945312 77.851562 419.835938 73.816406 418.753906 C 69.777344 417.671875 65.632812 420.027344 64.566406 424.003906 C 63.5 427.984375 65.910156 432.097656 69.949219 433.179688 C 71.292969 433.539062 72.648438 433.515625 73.902344 433.179688 C 83.273438 441.546875 87.40625 456.675781 90.335938 468.066406 C 90.734375 469.59375 91.113281 471.128906 91.472656 472.667969 C 85.773438 458.199219 77.359375 444.328125 65.585938 433.9375 C 63.980469 432.519531 55.058594 423.671875 52.242188 425.035156 C 51.511719 425.386719 53.160156 429.25 53.324219 429.796875 C 54.867188 434.988281 55.851562 440.359375 56.75 445.683594 C 59.863281 464.082031 67.027344 478.964844 80.851562 492.226562 C 84.84375 496.054688 90.496094 498.097656 94.480469 501.71875 C 92.953125 512.363281 91.167969 522.960938 89.589844 533.585938 C 88.890625 532.203125 88.175781 530.824219 87.457031 529.449219 C 83.128906 521.203125 77.839844 513.644531 71.085938 507.164062 C 70.917969 507.007812 70.742188 506.878906 70.550781 506.773438 C 70.640625 506.546875 70.714844 506.308594 70.78125 506.066406 C 71.847656 502.085938 69.4375 497.976562 65.398438 496.894531 C 61.363281 495.8125 57.21875 498.167969 56.152344 502.144531 C 55.085938 506.125 57.496094 510.238281 61.535156 511.316406 C 63.625 511.878906 65.75 511.515625 67.453125 510.484375 C 67.507812 510.550781 67.570312 510.613281 67.636719 510.675781 C 74 516.78125 78.96875 523.914062 83.050781 531.683594 C 84.472656 534.394531 85.859375 537.125 87.195312 539.875 C 87.394531 540.285156 87.417969 540.964844 87.515625 541.574219 C 87.65625 542.414062 87.855469 543.183594 88.117188 543.707031 L 88.152344 543.777344 C 86.816406 553.960938 85.796875 564.1875 85.515625 574.519531 C 85.335938 580.996094 85.589844 587.484375 85.839844 593.960938 C 85.886719 595.121094 85.625 597.507812 85.914062 599.3125 C 86.121094 600.617188 86.617188 601.699219 87.296875 602.398438 C 88.25 603.378906 89.824219 603.414062 90.8125 602.480469 C 91.765625 601.578125 91.820312 600.09375 90.957031 599.105469 C 90.929688 598.953125 90.742188 597.976562 90.730469 597.367188 C 90.707031 596.003906 90.839844 594.605469 90.808594 593.808594 C 90.5625 587.441406 90.304688 581.058594 90.480469 574.691406 C 90.734375 565.574219 91.558594 556.542969 92.675781 547.550781 C 93.859375 546.230469 95.199219 544.886719 95.316406 544.773438 C 100.988281 539.261719 107.933594 534.691406 114.785156 530.753906 C 130.875 521.488281 141.425781 509.980469 144.457031 491.3125 C 144.921875 488.464844 147.324219 477.867188 144.898438 475.257812 C 144.730469 475.078125 141.644531 478.4375 141.414062 478.660156 C 137.394531 482.570312 133.449219 486.527344 129.582031 490.585938 C 120.742188 499.878906 112.441406 509.449219 104.1875 519.242188 C 100.871094 523.179688 97.640625 526.746094 95.039062 530.71875 C 96.933594 518.3125 99.042969 505.929688 100.617188 493.449219 C 102.335938 479.832031 102.8125 466.265625 101.769531 452.878906 C 103.152344 452.34375 105.613281 451.773438 106.488281 451.328125 C 110.640625 449.222656 114.5 446.605469 118.09375 443.671875 C 133.367188 431.230469 142.441406 412.628906 145.492188 393.480469 C 146.488281 387.242188 147.199219 380.902344 147.242188 374.574219 C 147.25 373.714844 147.613281 369.515625 146.289062 369.105469 C 145.632812 368.902344 143.753906 373.402344 143.496094 373.867188 C 140.660156 378.9375 136.910156 383.351562 133.457031 388 C 122.601562 402.617188 111.671875 418.019531 104.390625 434.878906 C 104.628906 431.589844 104.886719 428.304688 105.222656 425.027344 C 106.75 410.109375 108.894531 395.746094 115.703125 382.269531 C 115.722656 382.226562 115.746094 382.183594 115.761719 382.136719 C 119.484375 382.652344 123.082031 380.367188 124.066406 376.699219 C 125.132812 372.71875 122.71875 368.605469 118.679688 367.523438 C 114.644531 366.441406 110.5 368.796875 109.433594 372.777344 C 108.730469 375.402344 109.539062 378.078125 111.328125 379.914062 C 111.300781 379.957031 111.277344 380.003906 111.253906 380.050781 C 104.175781 394.070312 101.867188 408.988281 100.277344 424.5 C 99.921875 427.957031 99.652344 431.425781 99.40625 434.894531 C 97.234375 423.300781 93.785156 411.886719 88.871094 400.738281 C 85.019531 392.003906 80.382812 383.683594 75.621094 375.445312 C 75.589844 374.8125 75.359375 373.292969 75.460938 372.640625 C 75.78125 370.515625 76.226562 368.390625 76.816406 366.324219 C 78.503906 360.4375 81.050781 354.828125 83.621094 349.28125 C 92.03125 331.105469 97.492188 314.917969 95.535156 294.441406 C 95.09375 289.820312 94.429688 285.167969 93.171875 280.683594 C 93.019531 280.140625 92.34375 276.621094 91.617188 276.425781 C 91.300781 276.339844 89.308594 281.621094 89.152344 281.960938 C 86.433594 287.855469 83.324219 293.582031 80.308594 299.328125 C 73.347656 312.578125 71.859375 326.375 70.546875 341.0625 C 70.175781 345.210938 69.78125 349.066406 69.542969 352.792969 C 68.601562 349.109375 67.773438 345.402344 67.140625 341.65625 C 64.507812 326.128906 63.511719 310.472656 65.789062 294.90625 C 68.625 294.449219 71.058594 292.40625 71.839844 289.488281 C 72.90625 285.507812 70.496094 281.402344 66.457031 280.320312 C 62.417969 279.238281 58.277344 281.589844 57.210938 285.570312 C 56.304688 288.953125 57.910156 292.425781 60.890625 294.058594 C 58.515625 310.167969 59.515625 326.363281 62.242188 342.4375 C 63.175781 347.945312 64.507812 353.378906 66.007812 358.769531 C 59.246094 346.691406 53.175781 334.320312 49.835938 320.640625 Z M 95.207031 483.671875 L 95.210938 483.675781 C 95.246094 483.65625 95.285156 483.636719 95.324219 483.617188 C 95.285156 483.632812 95.246094 483.652344 95.207031 483.671875 Z M 95.207031 483.671875 " fill-opacity="1" fill-rule="evenodd"/><g clip-path="url(#1780eb900d)"><path fill="#c0c0c0" d="M 126.082031 556.265625 L 59.488281 556.265625 L 59.488281 567.203125 C 59.488281 582.585938 57.519531 594.234375 53.558594 602.148438 C 49.597656 610.058594 43.4375 615.332031 35.105469 617.972656 C 34.210938 617.972656 32.242188 618.410156 29.152344 619.289062 C 25.214844 619.730469 21.917969 620.167969 19.261719 620.609375 C 11.363281 621.488281 5.433594 621.925781 1.476562 621.925781 L 1.476562 635.113281 L 358.175781 635.113281 L 387.847656 523.027344 L 368.066406 523.027344 C 356.183594 551.597656 341.898438 572.257812 325.210938 585.003906 C 308.496094 598.191406 288.488281 605.882812 265.207031 608.082031 C 254.652344 609.839844 239.496094 610.71875 219.71875 610.71875 L 181.460938 610.71875 L 145.863281 608.082031 C 138.398438 607.203125 133.339844 605.222656 130.707031 602.148438 C 127.617188 599.070312 126.082031 594.234375 126.082031 587.640625 Z M 152.296875 391.820312 L 143.480469 418.851562 L 220.359375 418.851562 C 226.953125 418.851562 233.109375 419.074219 238.832031 419.511719 L 240.800781 419.511719 C 250.484375 420.390625 258.179688 421.492188 263.878906 422.808594 C 273.5625 425.007812 280.363281 428.082031 284.324219 432.039062 C 288.71875 437.3125 291.785156 442.808594 293.546875 448.523438 L 300.140625 483.46875 L 315.320312 483.46875 L 315.320312 329.84375 L 300.140625 329.84375 C 297.074219 348.746094 293.34375 362.371094 288.945312 370.722656 C 284.988281 378.195312 278.394531 383.6875 269.167969 387.207031 C 259.917969 390.28125 244.097656 391.820312 221.6875 391.820312 Z M 59.488281 266.417969 L 126.082031 266.417969 L 126.082031 242.152344 C 126.953125 235.558594 128.511719 230.722656 130.707031 227.648438 C 132.449219 224.570312 137.507812 223.03125 145.863281 223.03125 L 246.089844 223.03125 C 270.699219 223.03125 288.945312 225.230469 300.804688 229.625 C 312.664062 234.460938 321.019531 241.492188 325.851562 250.722656 C 330.703125 261.273438 334.4375 275.121094 337.070312 292.261719 L 354.214844 292.261719 L 351.582031 198.636719 L 1.476562 198.636719 L 1.476562 211.824219 C 24.757812 211.824219 40.371094 216.21875 48.292969 225.011719 C 55.753906 234.679688 59.488281 248.304688 59.488281 265.886719 Z M 59.488281 266.417969 " fill-opacity="1" fill-rule="nonzero"/></g><path fill="#c0c0c0" d="M 457.921875 341.257812 C 457.378906 340.214844 456.753906 339.140625 456.644531 338.875 C 454.941406 334.789062 453.847656 330.394531 453.347656 325.996094 C 451.980469 313.953125 454.558594 302.800781 459.53125 291.777344 C 461.03125 288.453125 462.664062 285.183594 464.238281 281.894531 C 464.425781 281.503906 465.257812 279.074219 465.832031 279.054688 C 466.253906 279.039062 466.433594 282.613281 466.464844 282.902344 C 466.902344 287.378906 467.464844 291.871094 468.230469 296.300781 C 470.359375 308.625 472.144531 321.359375 469.152344 333.765625 C 468.132812 337.984375 466.210938 343.644531 462.003906 345.996094 C 458.757812 368.539062 448.109375 388.75 440.542969 410.113281 C 441.585938 408.242188 442.683594 406.402344 443.832031 404.59375 C 454.003906 388.632812 467.921875 376.773438 485.070312 368.769531 C 488.777344 367.039062 492.519531 365.40625 496.3125 363.875 C 496.75 363.699219 499.449219 362.269531 499.824219 362.722656 C 500.378906 363.390625 498.121094 367.109375 497.820312 367.742188 C 495.253906 373.117188 492.496094 378.410156 489.914062 383.78125 C 481.625 401.023438 467.289062 413.941406 450.875 423.46875 C 446.765625 425.855469 439.980469 430.457031 434.648438 430.691406 C 430.488281 450.605469 430.878906 470.644531 434.578125 490.480469 C 434.769531 487.765625 435.019531 485.050781 435.320312 482.347656 C 436.582031 470.964844 438.753906 456.019531 446.304688 446.324219 C 445.738281 445.738281 445.269531 445.042969 444.929688 444.25 C 443.421875 440.714844 445.109375 436.597656 448.695312 435.066406 C 452.28125 433.535156 456.421875 435.164062 457.929688 438.699219 C 459.441406 442.238281 457.753906 446.351562 454.164062 447.882812 C 452.972656 448.394531 451.714844 448.550781 450.515625 448.40625 C 442.960938 457.371094 441.132812 471.894531 439.925781 482.804688 C 439.761719 484.265625 439.613281 485.734375 439.484375 487.203125 C 442.839844 473.085938 448.789062 459.164062 458.296875 448.011719 C 459.59375 446.492188 466.671875 437.140625 469.453125 438.027344 C 470.171875 438.257812 469.160156 442.042969 469.082031 442.570312 C 468.339844 447.566406 468.140625 452.660156 468.007812 457.699219 C 467.554688 475.105469 462.898438 489.800781 451.875 503.875 C 448.691406 507.9375 443.738281 510.570312 440.53125 514.441406 C 443.34375 524.074219 446.390625 533.632812 449.25 543.238281 C 449.714844 541.867188 450.191406 540.5 450.675781 539.136719 C 453.585938 530.949219 457.476562 523.265625 462.867188 516.390625 C 462.996094 516.222656 463.144531 516.082031 463.304688 515.960938 C 463.195312 515.757812 463.09375 515.550781 463 515.335938 C 461.492188 511.800781 463.175781 507.683594 466.765625 506.152344 C 470.351562 504.621094 474.492188 506.25 476 509.785156 C 477.511719 513.320312 475.824219 517.4375 472.238281 518.96875 C 470.378906 519.761719 468.367188 519.707031 466.65625 518.976562 C 466.613281 519.046875 466.566406 519.113281 466.515625 519.179688 C 461.4375 525.660156 457.785156 532.902344 455.042969 540.621094 C 454.085938 543.3125 453.164062 546.019531 452.289062 548.734375 C 452.160156 549.136719 452.230469 549.769531 452.21875 550.34375 C 452.199219 551.140625 452.113281 551.878906 451.945312 552.398438 L 451.917969 552.46875 C 454.496094 561.699219 456.785156 571.011719 458.410156 580.523438 C 459.429688 586.480469 454.84375 587.195312 453.84375 581.335938 C 452.40625 572.945312 450.453125 564.707031 448.238281 556.546875 C 446.96875 555.484375 445.558594 554.417969 445.433594 554.332031 C 439.464844 549.988281 432.445312 546.679688 425.601562 543.941406 C 409.511719 537.503906 398.25 528.257812 392.988281 511.410156 C 392.183594 508.84375 388.566406 499.367188 390.464844 496.636719 C 390.597656 496.445312 393.890625 499.144531 394.132812 499.320312 C 398.359375 502.40625 402.527344 505.539062 406.632812 508.78125 C 416.027344 516.203125 424.957031 523.949219 433.871094 531.910156 C 437.457031 535.109375 440.910156 537.980469 443.835938 541.308594 C 440.453125 530.097656 436.871094 518.933594 433.773438 507.609375 C 430.390625 495.253906 428.164062 482.785156 427.359375 470.277344 C 426.015625 469.964844 423.667969 469.761719 422.800781 469.46875 C 418.683594 468.066406 414.777344 466.160156 411.066406 463.925781 C 395.320312 454.441406 384.484375 438.449219 379.140625 421.160156 C 377.402344 415.527344 375.90625 409.765625 375.035156 403.925781 C 374.914062 403.128906 374.023438 399.296875 375.195312 398.746094 C 375.773438 398.472656 378.105469 402.382812 378.402344 402.777344 C 381.691406 407.085938 385.734375 410.671875 389.535156 414.511719 C 401.492188 426.585938 413.621094 439.375 422.570312 453.992188 C 421.917969 450.984375 421.246094 447.984375 420.503906 445 C 417.125 431.417969 413.253906 418.433594 405.1875 406.875 C 405.164062 406.839844 405.136719 406.800781 405.113281 406.765625 C 401.746094 407.730469 398.117188 406.089844 396.726562 402.832031 C 395.214844 399.292969 396.902344 395.179688 400.492188 393.648438 C 404.078125 392.117188 408.21875 393.746094 409.726562 397.28125 C 410.722656 399.613281 410.328125 402.195312 408.917969 404.125 C 408.949219 404.164062 408.976562 404.203125 409.003906 404.242188 C 417.394531 416.261719 421.488281 429.738281 425.003906 443.863281 C 425.785156 447.007812 426.492188 450.175781 427.179688 453.347656 C 427.65625 442.355469 429.335938 431.355469 432.410156 420.40625 C 434.816406 411.828125 438.003906 403.53125 441.316406 395.289062 C 441.261719 394.703125 441.277344 393.269531 441.097656 392.679688 C 440.523438 390.757812 439.832031 388.851562 439.011719 387.019531 C 436.679688 381.804688 433.585938 376.957031 430.484375 372.171875 C 420.316406 356.488281 413.140625 342.25 412.25 323.074219 C 412.046875 318.75 412.050781 314.363281 412.621094 310.054688 C 412.691406 309.53125 412.851562 306.1875 413.492188 305.914062 C 413.773438 305.792969 416.308594 310.410156 416.5 310.703125 C 419.789062 315.789062 423.417969 320.671875 426.960938 325.582031 C 435.136719 336.910156 438.332031 349.457031 441.480469 362.855469 C 442.367188 366.640625 443.238281 370.152344 443.953125 373.558594 C 444.335938 370.035156 444.609375 366.503906 444.703125 362.957031 C 445.089844 348.261719 443.949219 333.667969 439.789062 319.585938 C 437.113281 319.539062 434.59375 317.972656 433.488281 315.378906 C 431.976562 311.839844 433.664062 307.726562 437.253906 306.195312 C 440.839844 304.664062 444.976562 306.292969 446.488281 309.828125 C 447.769531 312.835938 446.746094 316.253906 444.207031 318.15625 C 448.523438 332.726562 449.730469 347.824219 449.332031 363.03125 C 449.195312 368.246094 448.679688 373.441406 448.003906 378.617188 C 452.660156 366.566406 456.640625 354.335938 457.921875 341.257812 Z M 437.480469 497.863281 L 437.480469 497.867188 C 437.445312 497.855469 437.40625 497.839844 437.367188 497.828125 C 437.40625 497.839844 437.441406 497.851562 437.480469 497.863281 Z M 437.480469 497.863281 " fill-opacity="1" fill-rule="evenodd"/><g clip-path="url(#5d92b79ca1)"><path fill="#c0c0c0" d="M 493.945312 568.140625 L 418.152344 568.140625 C 430.183594 581.917969 444.015625 593.660156 459.652344 603.363281 C 481.734375 617.640625 505.300781 627.589844 530.398438 633.210938 C 554.621094 638.835938 579.269531 641.648438 604.367188 641.648438 C 631.179688 641.648438 660.175781 636.890625 691.316406 627.371094 C 724.617188 616.988281 747.125 608.121094 758.792969 600.769531 L 764 594.277344 L 764 466.449219 C 764 448.28125 766.792969 435.085938 772.425781 426.867188 C 777.609375 418.648438 789.953125 414.539062 809.421875 414.539062 L 809.421875 402.855469 L 644.585938 402.855469 L 644.585938 414.539062 C 661.035156 414.539062 673.785156 416.484375 682.886719 420.378906 C 691.96875 424.703125 697.375 430.757812 699.109375 438.546875 C 700.824219 445.898438 701.703125 458.230469 701.703125 475.53125 L 701.703125 580.652344 C 701.703125 584.976562 697.375 590.167969 688.722656 596.226562 C 680.5 601.847656 669.257812 606.390625 654.972656 609.851562 C 653.238281 610.285156 650.445312 610.933594 646.546875 611.800781 C 643.503906 613.097656 640.914062 613.960938 638.75 614.394531 C 631.835938 615.691406 621.875 616.339844 608.898438 616.339844 C 586.410156 616.339844 566.71875 612.878906 549.867188 605.957031 C 531.683594 599.039062 515.890625 589.304688 502.484375 576.757812 C 499.53125 574 496.671875 571.128906 493.945312 568.140625 Z M 416.167969 276.933594 L 485.722656 276.933594 C 488.359375 273.3125 491.152344 269.867188 494.058594 266.589844 C 506.609375 252.316406 523.03125 240.851562 543.378906 232.199219 C 564.128906 223.546875 583.59375 219.222656 601.777344 219.222656 C 670.992188 219.222656 718.125 256.425781 743.226562 330.832031 L 758.792969 330.832031 L 753.613281 192.617188 L 738.675781 192.617188 C 733.921875 205.59375 724.1875 213.164062 709.476562 215.328125 L 701.703125 214.03125 C 701.703125 214.03125 700.191406 213.597656 697.152344 212.734375 C 694.988281 212.300781 692.824219 211.867188 690.660156 211.433594 C 685.050781 210.136719 678.992188 208.40625 672.5 206.246094 C 667.746094 204.515625 661.257812 202.566406 653.035156 200.40625 L 651.726562 199.753906 L 649.136719 199.753906 L 641.996094 197.808594 C 638.097656 196.945312 635.730469 196.511719 634.851562 196.511719 C 621.875 193.914062 608.265625 192.617188 593.980469 192.617188 C 587.921875 192.617188 579.269531 193.050781 568.027344 193.914062 C 561.109375 194.78125 547.703125 197.375 527.785156 201.703125 C 508.320312 206.460938 488.222656 215.761719 467.449219 229.605469 C 446.789062 243.296875 429.6875 259.070312 416.167969 276.933594 Z M 416.167969 276.933594 " fill-opacity="1" fill-rule="nonzero"/></g></svg>